# MagicaVoxel @ Ephtracy

# group
o 

# material
mtllib mushroom.mtl
usemtl palette

# normals
vn -1 0 0
vn 1 0 0
vn 0 0 1
vn 0 0 -1
vn 0 -1 0
vn 0 1 0

# texcoords
vt 0.849609 0.5
vt 0.958984 0.5

# verts
v -0.3 0 0
v -0.3 0 -0.1
v -0.3 0 -0.2
v -0.3 0.1 0
v -0.3 0.1 -0.1
v -0.3 0.1 -0.2
v -0.2 0 -0.2
v -0.2 0 -0.3
v -0.2 0.1 -0.2
v -0.2 0.1 -0.3
v -0.1 0 0.4
v -0.1 0 0
v -0.1 0 -0.3
v -0.1 0 -0.4
v -0.1 0.1 0.4
v -0.1 0.1 0
v -0.1 0.1 -0.3
v -0.1 0.1 -0.4
v 0.2 0 0.4
v 0.2 0 0
v 0.2 0 -0.3
v 0.2 0 -0.4
v 0.2 0.1 0.4
v 0.2 0.1 0
v 0.2 0.1 -0.3
v 0.2 0.1 -0.4
v 0.3 0 -0.2
v 0.3 0 -0.3
v 0.3 0.1 -0.2
v 0.3 0.1 -0.3
v 0.4 0 0
v 0.4 0 -0.1
v 0.4 0 -0.2
v 0.4 0.1 0
v 0.4 0.1 -0.1
v 0.4 0.1 -0.2
v -0.1 0 0.4
v -0.1 0.1 0.4
v 0.2 0 0.4
v 0.2 0.1 0.4
v -0.3 0 0
v -0.3 0.1 0
v -0.2 0 0
v -0.2 0.1 0
v -0.1 0 0
v -0.1 0.1 0
v 0.2 0 0
v 0.2 0.1 0
v 0.3 0 0
v 0.3 0.1 0
v 0.4 0 0
v 0.4 0.1 0
v -0.3 0 -0.2
v -0.3 0.1 -0.2
v -0.2 0 -0.2
v -0.2 0.1 -0.2
v 0.3 0 -0.2
v 0.3 0.1 -0.2
v 0.4 0 -0.2
v 0.4 0.1 -0.2
v -0.2 0 -0.3
v -0.2 0.1 -0.3
v -0.1 0 -0.3
v -0.1 0.1 -0.3
v 0.2 0 -0.3
v 0.2 0.1 -0.3
v 0.3 0 -0.3
v 0.3 0.1 -0.3
v -0.1 0 -0.4
v -0.1 0.1 -0.4
v 0.1 0 -0.4
v 0.1 0.1 -0.4
v 0.2 0 -0.4
v 0.2 0.1 -0.4
v -0.1 0 0.4
v 0.2 0 0.4
v -0.3 0 0
v -0.2 0 0
v -0.1 0 0
v 0.2 0 0
v 0.3 0 0
v 0.4 0 0
v -0.3 0 -0.1
v -0.2 0 -0.1
v 0 0 -0.1
v 0.1 0 -0.1
v 0.3 0 -0.1
v 0.4 0 -0.1
v -0.3 0 -0.2
v -0.2 0 -0.2
v -0.1 0 -0.2
v 0 0 -0.2
v 0.1 0 -0.2
v 0.3 0 -0.2
v 0.4 0 -0.2
v -0.2 0 -0.3
v -0.1 0 -0.3
v 0.1 0 -0.3
v 0.2 0 -0.3
v 0.3 0 -0.3
v -0.1 0 -0.4
v 0.1 0 -0.4
v 0.2 0 -0.4
v -0.1 0.1 0.4
v 0.2 0.1 0.4
v -0.3 0.1 0
v -0.2 0.1 0
v -0.1 0.1 0
v 0.2 0.1 0
v 0.3 0.1 0
v 0.4 0.1 0
v -0.3 0.1 -0.1
v -0.2 0.1 -0.1
v 0 0.1 -0.1
v 0.1 0.1 -0.1
v 0.3 0.1 -0.1
v 0.4 0.1 -0.1
v -0.3 0.1 -0.2
v -0.2 0.1 -0.2
v -0.1 0.1 -0.2
v 0 0.1 -0.2
v 0.1 0.1 -0.2
v 0.3 0.1 -0.2
v 0.4 0.1 -0.2
v -0.2 0.1 -0.3
v -0.1 0.1 -0.3
v 0.1 0.1 -0.3
v 0.2 0.1 -0.3
v 0.3 0.1 -0.3
v -0.1 0.1 -0.4
v 0.1 0.1 -0.4
v 0.2 0.1 -0.4

# faces
f 4/2/1 2/2/1 1/2/1
f 5/1/1 3/1/1 2/1/1
f 5/2/1 2/2/1 4/2/1
f 6/1/1 3/1/1 5/1/1
f 9/2/1 8/2/1 7/2/1
f 10/2/1 8/2/1 9/2/1
f 15/2/1 12/2/1 11/2/1
f 16/2/1 12/2/1 15/2/1
f 17/1/1 14/1/1 13/1/1
f 18/1/1 14/1/1 17/1/1
f 19/2/2 20/2/2 23/2/2
f 23/2/2 20/2/2 24/2/2
f 21/2/2 22/2/2 25/2/2
f 25/2/2 22/2/2 26/2/2
f 27/1/2 28/1/2 29/1/2
f 29/1/2 28/1/2 30/1/2
f 31/2/2 32/2/2 34/2/2
f 32/1/2 33/1/2 35/1/2
f 34/2/2 32/2/2 35/2/2
f 35/1/2 33/1/2 36/1/2
f 39/2/3 38/2/3 37/2/3
f 40/2/3 38/2/3 39/2/3
f 43/2/3 42/2/3 41/2/3
f 44/2/3 42/2/3 43/2/3
f 45/1/3 44/1/3 43/1/3
f 46/1/3 44/1/3 45/1/3
f 49/1/3 48/1/3 47/1/3
f 50/1/3 48/1/3 49/1/3
f 51/2/3 50/2/3 49/2/3
f 52/2/3 50/2/3 51/2/3
f 53/1/4 54/1/4 55/1/4
f 55/1/4 54/1/4 56/1/4
f 57/1/4 58/1/4 59/1/4
f 59/1/4 58/1/4 60/1/4
f 61/2/4 62/2/4 63/2/4
f 63/2/4 62/2/4 64/2/4
f 65/1/4 66/1/4 67/1/4
f 67/1/4 66/1/4 68/1/4
f 69/1/4 70/1/4 71/1/4
f 71/1/4 70/1/4 72/1/4
f 71/2/4 72/2/4 73/2/4
f 73/2/4 72/2/4 74/2/4
f 79/2/5 76/2/5 75/2/5
f 80/2/5 76/2/5 79/2/5
f 83/2/5 78/2/5 77/2/5
f 84/1/5 79/1/5 78/1/5
f 84/2/5 78/2/5 83/2/5
f 84/1/5 80/1/5 79/1/5
f 84/1/5 81/1/5 80/1/5
f 85/1/5 81/1/5 84/1/5
f 86/1/5 81/1/5 85/1/5
f 87/2/5 82/2/5 81/2/5
f 87/1/5 81/1/5 86/1/5
f 88/2/5 82/2/5 87/2/5
f 89/1/5 84/1/5 83/1/5
f 89/1/5 85/1/5 84/1/5
f 90/1/5 85/1/5 89/1/5
f 91/1/5 85/1/5 90/1/5
f 92/2/5 86/2/5 85/2/5
f 92/1/5 85/1/5 91/1/5
f 93/1/5 88/1/5 87/1/5
f 93/2/5 86/2/5 92/2/5
f 93/1/5 87/1/5 86/1/5
f 94/1/5 88/1/5 93/1/5
f 95/1/5 88/1/5 94/1/5
f 96/2/5 91/2/5 90/2/5
f 97/1/5 92/1/5 91/1/5
f 97/2/5 91/2/5 96/2/5
f 97/1/5 94/1/5 93/1/5
f 97/1/5 93/1/5 92/1/5
f 98/1/5 94/1/5 97/1/5
f 99/1/5 94/1/5 98/1/5
f 100/1/5 94/1/5 99/1/5
f 101/1/5 98/1/5 97/1/5
f 102/2/5 99/2/5 98/2/5
f 102/1/5 98/1/5 101/1/5
f 103/2/5 99/2/5 102/2/5
f 104/2/6 105/2/6 108/2/6
f 108/2/6 105/2/6 109/2/6
f 106/2/6 107/2/6 112/2/6
f 107/1/6 108/1/6 113/1/6
f 112/2/6 107/2/6 113/2/6
f 108/1/6 109/1/6 113/1/6
f 109/1/6 110/1/6 113/1/6
f 113/1/6 110/1/6 114/1/6
f 114/1/6 110/1/6 115/1/6
f 110/2/6 111/2/6 116/2/6
f 115/1/6 110/1/6 116/1/6
f 116/2/6 111/2/6 117/2/6
f 112/1/6 113/1/6 118/1/6
f 113/1/6 114/1/6 118/1/6
f 118/1/6 114/1/6 119/1/6
f 119/1/6 114/1/6 120/1/6
f 114/2/6 115/2/6 121/2/6
f 120/1/6 114/1/6 121/1/6
f 116/1/6 117/1/6 122/1/6
f 121/2/6 115/2/6 122/2/6
f 115/1/6 116/1/6 122/1/6
f 122/1/6 117/1/6 123/1/6
f 123/1/6 117/1/6 124/1/6
f 119/2/6 120/2/6 125/2/6
f 120/1/6 121/1/6 126/1/6
f 125/2/6 120/2/6 126/2/6
f 122/1/6 123/1/6 126/1/6
f 121/1/6 122/1/6 126/1/6
f 126/1/6 123/1/6 127/1/6
f 127/1/6 123/1/6 128/1/6
f 128/1/6 123/1/6 129/1/6
f 126/1/6 127/1/6 130/1/6
f 127/2/6 128/2/6 131/2/6
f 130/1/6 127/1/6 131/1/6
f 131/2/6 128/2/6 132/2/6
